<svg xmlns="http://www.w3.org/2000/svg" aria-hidden="true" overflow="hidden" style="position:absolute;width:0;height:0">
  <defs>
  <symbol id="icon-person" viewBox="0 0 31 32">
<path fill="#000" style="fill: var(--color1, #000)" d="M30.417 27.456c-0.302 0.766-0.998 1.845-1.985 2.605-0.57 0.439-1.25 0.858-2.185 1.135-0.996 0.295-2.223 0.395-3.75 0.395h-13.964c-1.527 0-2.754-0.1-3.75-0.395-0.934-0.277-1.615-0.696-2.185-1.135-0.987-0.76-1.683-1.839-1.985-2.605-0.608-1.544-0.614-3.295-0.614-4.398v-13.964c0-1.103 0.006-2.855 0.614-4.398 0.302-0.766 0.998-1.845 1.985-2.605 0.57-0.439 1.25-0.858 2.185-1.135 0.996-0.295 2.223-0.395 3.75-0.395h13.964c1.527 0 2.754 0.1 3.75 0.395 0.934 0.277 1.615 0.696 2.185 1.135 0.987 0.76 1.683 1.839 1.985 2.605 0.608 1.544 0.614 3.295 0.614 4.398v13.964c-0 1.103-0.006 2.854-0.614 4.398z"></path>
<path fill="#fff" style="fill: var(--color2, #fff)" d="M17.766 18.396c-0.466-0.491-1.284-0.806-2.249-0.806s-1.783 0.315-2.249 0.806c-0.243 0.256-0.371 0.519-0.412 0.894-0.078 0.725-0.034 1.349 0.051 2.347 0.081 0.951 0.235 2.219 0.435 3.511 0.143 0.919 0.259 1.415 0.364 1.771 0.171 0.576 0.811 1.079 1.811 1.079s1.64-0.504 1.811-1.079c0.105-0.355 0.221-0.851 0.364-1.771 0.201-1.292 0.354-2.56 0.435-3.511 0.085-0.998 0.129-1.622 0.051-2.347-0.040-0.374-0.169-0.637-0.412-0.894zM12.98 14.022c0 1.402 1.137 2.539 2.54 2.539s2.54-1.137 2.54-2.539c0-1.403-1.137-2.54-2.54-2.54s-2.54 1.137-2.54 2.54zM15.488 4c-5.939 0.017-10.806 4.835-10.88 10.774-0.060 4.811 3.011 8.926 7.3 10.435 0.104 0.037 0.21-0.050 0.193-0.159-0.056-0.374-0.109-0.749-0.158-1.118-0.017-0.13-0.1-0.243-0.221-0.296-3.389-1.481-5.756-4.88-5.718-8.818 0.050-5.167 4.27-9.38 9.437-9.422 5.283-0.043 9.594 4.242 9.594 9.515 0 3.898-2.356 7.256-5.72 8.725-0.12 0.053-0.203 0.165-0.22 0.296-0.049 0.369-0.102 0.744-0.158 1.117-0.017 0.109 0.089 0.195 0.193 0.159 4.247-1.494 7.301-5.545 7.301-10.297-0-6.028-4.912-10.929-10.944-10.912zM15.29 9.006c3.367-0.13 6.147 2.571 6.147 5.909 0 1.698-0.719 3.231-1.869 4.31-0.098 0.092-0.15 0.221-0.142 0.355 0.023 0.406 0.015 0.801-0.012 1.246-0.007 0.119 0.126 0.195 0.224 0.128 1.928-1.318 3.196-3.533 3.196-6.039 0-4.127-3.437-7.466-7.599-7.304-3.868 0.15-6.971 3.339-7.020 7.209-0.033 2.545 1.243 4.801 3.196 6.135 0.098 0.067 0.231-0.009 0.223-0.128-0.027-0.446-0.035-0.841-0.013-1.247 0.008-0.133-0.045-0.263-0.142-0.355-1.186-1.113-1.914-2.708-1.867-4.469 0.082-3.099 2.58-5.631 5.678-5.751z"></path>
</symbol>
    <symbol id="antenne" viewBox="0 0 31 32">
      <path fill="#fff" style="fill:var(--color2, #fff);stroke:var(--color4, #363f46)" stroke="#363f46" stroke-linecap="round" stroke-width="2.352" d="M15.455 29.651c7.531 0 13.636-6.105 13.636-13.636S22.986 2.379 15.455 2.379c-7.531 0-13.636 6.105-13.636 13.636s6.105 13.636 13.636 13.636z"/>
      <path fill="#fff" style="fill:var(--color2, #fff)" d="M8.051 10.257s-1.886 2.127-1.886 5.844 1.886 5.758 1.886 5.758z"/>
      <path fill="none" stroke="#fc7e0f" style="stroke:var(--color5, #fc7e0f)" stroke-linecap="round" stroke-width="2.352" d="M8.051 10.257s-1.886 2.127-1.886 5.844 1.886 5.758 1.886 5.758"/>
      <path fill="#fff" style="fill:var(--color2, #fff)" d="M23.075 10.257s1.886 2.127 1.886 5.844-1.886 5.758-1.886 5.758z"/>
      <path fill="none" stroke="#fc7e0f" style="stroke:var(--color5, #fc7e0f)" stroke-linecap="round" stroke-width="2.352" d="M23.075 10.257s1.886 2.127 1.886 5.844-1.886 5.758-1.886 5.758"/>
      <path fill="#fff" style="fill:var(--color2, #fff)" d="M20.067 12.742s1.27 1.582 1.239 3.351c-.039 2.127-1.223 3.296-1.223 3.296z"/>
      <path fill="none" stroke="#fc7e0f" style="stroke:var(--color5, #fc7e0f)" stroke-linecap="round" stroke-width="2.352" d="M20.067 12.742s1.27 1.582 1.239 3.351c-.039 2.127-1.223 3.296-1.223 3.296"/>
      <path fill="#fff" style="fill:var(--color2, #fff)" d="M10.997 12.742s-1.27 1.582-1.239 3.351c.039 2.127 1.223 3.296 1.223 3.296z"/>
      <path fill="none" stroke="#fc7e0f" style="stroke:var(--color5, #fc7e0f)" stroke-linecap="round" stroke-width="2.352" d="M10.997 12.742s-1.27 1.582-1.239 3.351c.039 2.127 1.223 3.296 1.223 3.296"/>
      <path fill="#363f46" style="fill:var(--color4, #363f46)" d="M15.453 18.132a2.117 2.117 0 1 0 0-4.234 2.117 2.117 0 0 0 0 4.234z"/>
      <path fill="#363f46" style="fill:var(--color4, #363f46)" d="m15.811 17.993-1.502-.404-2.5 9.34 1.502.404 2.5-9.34z"/>
      <path fill="#363f46" style="fill:var(--color4, #363f46)" d="m15.229 17.98 1.495-.397 2.487 9.347-1.495.397-2.487-9.347z"/>
      <path fill="#363f46" style="fill:var(--color4, #363f46)" d="m13.84 23.02.556-.569 3.85 3.75-.556.569-3.85-3.751z"/>
      <path fill="#363f46" style="fill:var(--color4, #363f46)" d="m17.101 23.041-.503-.509-3.817 3.79.503.509 3.817-3.79z"/>
    </symbol>
    <symbol id="cloud" viewBox="0 0 31 32">
      <path style="fill:var(--color1, #000)" d="M30.7 16.076c0 8.62-6.916 15.515-15.289 15.515S.001 24.695.001 16.076C.001 7.456 6.918.561 15.29.561s15.411 6.896 15.411 15.515z"/>
      <path fill="#fff" style="fill:var(--color2, #fff)" d="M4.529 17.112c.006-.051.042-.087.088-.087.044 0 .081.036.088.087l.19 1.238-.19 1.217c-.007.051-.043.087-.088.087-.046 0-.082-.036-.088-.087l-.161-1.217.161-1.238zM5.429 16.259c.046 0 .084.037.091.09l.245 2.002-.246 1.958c-.008.053-.045.09-.091.09s-.085-.038-.091-.09l-.216-1.957.216-2.002c.006-.052.045-.09.091-.09zM8.757 14.669c.004-.093.078-.167.166-.167s.161.074.166.167l.194 3.683-.194 2.38v-.001c-.005.093-.078.167-.166.167s-.162-.073-.166-.166l-.172-2.38.172-3.683zM7.032 15.911c.005-.074.061-.129.129-.129s.123.055.129.128l.22 2.441-.22 2.361c-.006.073-.061.128-.129.128s-.124-.055-.129-.128l-.194-2.361.194-2.44zM10.915 20.693c-.004.115-.094.205-.204.205s-.2-.09-.204-.204l-.15-2.341.15-4.902c.004-.115.093-.205.204-.205s.199.09.204.205l.168 4.903-.169 2.34zM14.654 20.628c-.003.155-.127.282-.279.282s-.276-.126-.279-.28l-.105-2.276.105-5.661c.002-.156.127-.282.279-.282s.276.127.279.282l.118 5.663-.118 2.273zM12.771 20.657c-.004.137-.11.244-.241.244s-.238-.107-.241-.242l-.127-2.304.127-4.939a.244.244 0 0 1 .241-.244c.132 0 .237.107.241.244l.143 4.939-.143 2.305v-.002zM8.186 20.731c-.006.084-.069.147-.147.147-.079 0-.142-.064-.148-.148l-.183-2.38.183-2.263c.005-.084.068-.148.148-.148s.142.063.147.147l.207 2.265-.207 2.381zM6.402 20.639c-.007.063-.053.109-.11.109s-.104-.046-.11-.109l-.205-2.288.205-2.375c.006-.063.052-.109.11-.109s.103.046.11.109l.233 2.375-.233 2.289zM13.189 13.596c.003-.148.117-.263.26-.263s.257.115.26.262l.13 4.759-.13 2.29v-.002c-.003.148-.117.263-.26.263s-.257-.115-.26-.261l-.116-2.29.116-4.758zM9.999 20.717a.19.19 0 0 1-.185.186.189.189 0 0 1-.185-.185l-.161-2.365.161-4.525c.004-.104.086-.186.185-.186s.18.081.185.186l.181 4.525-.181 2.364zM11.84 20.68c-.004.125-.102.223-.222.223s-.219-.099-.222-.223l-.139-2.326.138-5.068c.003-.126.101-.225.222-.225s.218.099.222.225l.156 5.068-.156 2.325v.001-.001.001zM22.586 15.645a2.663 2.663 0 0 1 1.045-.213c1.492 0 2.701 1.228 2.701 2.742s-1.21 2.742-2.701 2.742l-7.489-.005a.33.33 0 0 1-.292-.324v-8.701c.002-.16.056-.242.26-.322a4.768 4.768 0 0 1 1.728-.328c2.491 0 4.532 1.938 4.747 4.409zM15 12.18c.002-.166.136-.301.298-.301s.295.135.297.301l.132 6.176-.132 2.242v-.003c-.002.166-.136.301-.297.301s-.295-.135-.298-.299l-.122-2.241L15 12.18z"/>
    </symbol>
    <symbol id="group" viewBox="0 0 31 32">
      <path fill="#fff" style="fill:var(--color2, #fff)" d="M15.185 29.651c7.498 0 13.576-6.078 13.576-13.576S22.683 2.499 15.185 2.499 1.609 8.577 1.609 16.075s6.078 13.576 13.576 13.576z"/>
      <path fill="#f43e37" style="fill:var(--color3, #f43e37)" d="M15.696.561C7.38.561.639 7.507.639 16.076S7.38 31.591 15.696 31.591s15.057-6.946 15.057-15.515S24.012.561 15.696.561zm4.664 15.658c0-2.575-2.026-4.663-4.525-4.663s-4.524 2.087-4.524 4.663c0 2.575 2.026 4.662 4.524 4.662v2.664c-3.927 0-7.11-3.28-7.11-7.327s3.183-7.327 7.11-7.327c3.927 0 7.11 3.28 7.11 7.327H20.36zm4.363 0c0-5.058-3.979-9.158-8.888-9.158s-8.887 4.1-8.887 9.158 3.979 9.158 8.887 9.158v3.053c-6.544 0-11.85-5.467-11.85-12.211S9.291 4.008 15.835 4.008c6.545 0 11.85 5.467 11.85 12.211h-2.963z"/>
    </symbol>
    <symbol id="spotify" viewBox="0 0 31 32">
      <path fill="#1ed760" style="fill:var(--color6, #1ed760)" d="M15.515.612C6.973.612.047 7.537.047 16.079s6.925 15.467 15.468 15.467 15.468-6.925 15.468-15.467S24.059.612 15.515.612V.611zm7.093 22.308a.964.964 0 0 1-1.326.32c-3.632-2.218-8.203-2.721-13.588-1.491a.964.964 0 0 1-.429-1.88c5.892-1.347 10.946-.767 15.023 1.725a.964.964 0 0 1 .32 1.326zm1.893-4.212a1.206 1.206 0 0 1-1.659.398c-4.158-2.556-10.495-3.296-15.413-1.803a1.208 1.208 0 0 1-1.505-.803 1.208 1.208 0 0 1 .804-1.504c5.617-1.704 12.601-.879 17.375 2.055.567.349.746 1.092.397 1.658zm.163-4.385c-4.985-2.961-13.21-3.233-17.97-1.789a1.446 1.446 0 1 1-.84-2.769c5.464-1.659 14.547-1.338 20.286 2.069a1.446 1.446 0 1 1-1.476 2.488h-.001z"/>
    </symbol>
    <symbol id="icon-insta" viewBox="0 0 32 32">
      <path d="M0 16C0 7.163 7.163 0 16 0s16 7.163 16 16-7.163 16-16 16S0 24.837 0 16zm16.001-8.533c-2.317 0-2.608.01-3.519.052-.909.042-1.528.185-2.071.396-.561.218-1.037.51-1.512.984s-.766.95-.985 1.511c-.212.543-.356 1.163-.396 2.071-.041.91-.051 1.201-.051 3.519s.01 2.607.052 3.518c.042.909.186 1.529.396 2.071.218.561.51 1.037.984 1.512s.95.767 1.511.985c.543.211 1.163.355 2.072.396.91.041 1.201.052 3.518.052s2.608-.01 3.518-.052c.908-.042 1.529-.185 2.072-.396.561-.218 1.036-.51 1.511-.985s.766-.95.985-1.512c.21-.543.354-1.163.396-2.071.041-.91.052-1.2.052-3.518s-.011-2.608-.052-3.519c-.043-.909-.187-1.529-.396-2.071-.219-.561-.51-1.037-.985-1.512s-.949-.766-1.511-.984c-.544-.211-1.164-.355-2.073-.396-.91-.041-1.2-.052-3.518-.052h.003z"/>
      <path d="M15.235 9.005h.766c2.278 0 2.548.008 3.448.049.832.038 1.284.177 1.584.294.398.155.682.34.981.638s.484.583.639.981c.117.3.256.752.294 1.584.041.899.05 1.17.05 3.447s-.009 2.548-.05 3.447c-.038.832-.177 1.284-.294 1.584-.155.398-.34.682-.639.98s-.582.483-.981.638c-.3.117-.752.256-1.584.294-.9.041-1.17.05-3.448.05s-2.549-.009-3.448-.05c-.832-.038-1.284-.177-1.585-.294-.398-.155-.683-.34-.981-.638s-.484-.582-.639-.981c-.117-.3-.256-.752-.294-1.584-.041-.9-.049-1.17-.049-3.449s.008-2.548.049-3.447c.038-.832.177-1.284.294-1.584.155-.398.34-.683.639-.981s.583-.484.981-.639c.301-.117.753-.256 1.585-.294.787-.036 1.092-.046 2.683-.048v.002zm5.32 1.417a1.024 1.024 0 1 0 0 2.048 1.024 1.024 0 0 0 0-2.048zM16 11.618a4.382 4.382 0 1 0 0 8.764 4.382 4.382 0 0 0 0-8.764z"/>
      <path d="M16.001 13.155a2.844 2.844 0 1 1 .001 5.689 2.844 2.844 0 0 1-.001-5.689z"/>
    </symbol>
    <symbol id="icon-facebook" viewBox="0 0 32 32">
      <path d="M0 16C0 7.163 7.163 0 16 0s16 7.163 16 16-7.163 16-16 16S0 24.837 0 16zm17.668 9.408v-8.705h2.403l.319-3h-2.721l.004-1.501c0-.782.074-1.202 1.198-1.202h1.502V8H17.97c-2.887 0-3.903 1.455-3.903 3.902v1.801h-1.799v3h1.799v8.705h3.602z"/>
    </symbol>
    <symbol id="icon-arrow-right" viewBox="0 0 36 32">
      <path d="M35.414 14.586a2 2 0 0 1 0 2.828L22.686 30.142a2 2 0 1 1-2.828-2.828L31.172 16 19.858 4.686a2 2 0 1 1 2.828-2.828l12.728 12.728zM34 18H.476v-4H34v4z"/>
    </symbol>
    <symbol id="icon-arrow-left" viewBox="0 0 36 32">
      <path d="M1.062 17.414a2 2 0 0 1 0-2.828L13.79 1.858a2 2 0 1 1 2.828 2.828L5.304 16l11.314 11.314a2 2 0 1 1-2.828 2.828L1.062 17.414zM36 18H2.476v-4H36v4z"/>
    </symbol>
    <symbol id="icon-burger-menu" viewBox="0 0 57 32">
      <path d="M1.684 0h53.102c.93 0 1.684.754 1.684 1.684v2.279c0 .93-.754 1.684-1.684 1.684H1.684C.754 5.647 0 4.893 0 3.963V1.684C0 .754.754 0 1.684 0zM1.684 13.176h53.102c.93 0 1.684.754 1.684 1.684v2.279c0 .93-.754 1.684-1.684 1.684H1.684c-.93 0-1.684-.754-1.684-1.684V14.86c0-.93.754-1.684 1.684-1.684zM1.684 26.353h36.574c.93 0 1.684.754 1.684 1.684v2.279c0 .93-.754 1.684-1.684 1.684H1.684C.754 32 0 31.246 0 30.316v-2.279c0-.93.754-1.684 1.684-1.684z"/>
    </symbol>
  </defs>
</svg>
